<svg xmlns="http://www.w3.org/2000/svg" xmlns:xlink="http://www.w3.org/1999/xlink" id="prefix__Layer_2" viewBox="0 0 25.5 32"><defs><linearGradient id="prefix__linear-gradient" x1="0" x2="25.5" y1="16" y2="16" gradientUnits="userSpaceOnUse"><stop offset="0" stop-color="#3041b2"/><stop offset="1" stop-color="#101589"/></linearGradient><linearGradient xlink:href="#prefix__linear-gradient" id="prefix__linear-gradient-2" y1="18" y2="18" gradientTransform="matrix(1 0 0 -1 0 34)"/><style>.prefix__cls-1{fill:url(#prefix__linear-gradient-2)}.prefix__cls-2{fill:#101589}.prefix__cls-3{fill:#06067c}.prefix__cls-4{fill:#3041b2}.prefix__cls-5{fill:#1b2497}.prefix__cls-6{fill:url(#prefix__linear-gradient)}</style></defs><g id="prefix__Layer_1-2"><path d="M25.54,6.16v10.62c0,.08,0,.7-.26,1.68-.58,2.35-2.51,6.86-8.89,11.37-.55,.39-1.13,.78-1.75,1.16-.48,.31-.98,.61-1.51,.91-.11,.07-.23,.1-.36,.1s-.25-.03-.36-.1c-.31-.18-.61-.35-.9-.53-.61-.37-1.19-.74-1.73-1.12h-.01c-1-.67-1.89-1.35-2.69-2.02-1.38-1.14-2.49-2.27-3.38-3.35-.9-1.08-1.59-2.11-2.1-3.05C.04,18.97,0,16.94,0,16.78V6.16c0-.28,.09-.55,.24-.79,.16-.23,.38-.41,.64-.52L12.21,.11c.18-.07,.37-.11,.56-.11s.38,.04,.55,.11l10.11,4.23,1.22,.51c.14,.06,.27,.14,.39,.24,.09,.08,.18,.18,.25,.28,.16,.24,.24,.51,.25,.79Z" class="prefix__cls-6"/><path d="M25.54,6.16v3.66c-.45-.47-.94-.9-1.45-1.3-2.28-1.75-5.13-2.79-8.22-2.79-7.43,0-13.45,6.01-13.45,13.43,0,.4,.02,.8,.06,1.19,.13,1.61,.56,3.13,1.22,4.53-.9-1.08-1.59-2.11-2.1-3.05C.04,18.97,0,16.94,0,16.78V6.16c0-.28,.09-.55,.24-.79,.16-.23,.38-.41,.64-.52L12.21,.11c.18-.07,.37-.11,.56-.11s.38,.04,.55,.11l10.11,4.23,1.22,.51c.14,.06,.27,.14,.39,.24,.09,.08,.18,.18,.25,.28,.16,.24,.24,.51,.25,.79Z" class="prefix__cls-3"/><path d="M25.54,9.82v3.84c-.46-.28-.94-.53-1.44-.74-1.37-.59-2.89-.92-4.49-.92-6.3,0-11.4,5.09-11.4,11.37,0,1.7,.37,3.3,1.04,4.75,.02,.05,.04,.09,.06,.14,.36,.75,.8,1.45,1.31,2.09,.27,.36,.57,.7,.89,1.02-.61-.37-1.19-.74-1.73-1.12h-.01c-1-.67-1.89-1.35-2.69-2.02-1.38-1.14-2.49-2.27-3.38-3.35-.66-1.4-1.09-2.92-1.22-4.53-.04-.39-.06-.79-.06-1.19,0-7.42,6.02-13.43,13.45-13.43,3.09,0,5.94,1.04,8.22,2.79,.51,.4,1,.83,1.45,1.3Z" class="prefix__cls-2"/><path d="M25.54,13.66v3.12c0,.08,0,.7-.26,1.68-.33-.07-.68-.12-1.02-.15-.14-.02-.28-.03-.42-.04-.17-.01-.33-.01-.5-.01-5.09,0-9.23,4.06-9.34,9.11v.21c0,.64,.06,1.27,.19,1.88,.05,.27,.12,.54,.2,.8,.08,.25,.16,.49,.25,.73-.48,.31-.98,.61-1.51,.91-.11,.07-.23,.1-.36,.1s-.25-.03-.36-.1c-.31-.18-.61-.35-.9-.53-.32-.32-.62-.66-.89-1.02-.51-.64-.95-1.34-1.31-2.09,.04,0,.08-.01,.12-.01-.06-.04-.12-.09-.18-.13-.67-1.45-1.04-3.05-1.04-4.75,0-6.28,5.1-11.37,11.4-11.37,1.6,0,3.12,.33,4.49,.92,.5,.21,.98,.46,1.44,.74Z" class="prefix__cls-5"/><path d="M25.28,18.46c-.58,2.35-2.51,6.86-8.89,11.37-.55,.39-1.13,.78-1.75,1.16-.09-.24-.17-.48-.25-.73-.08-.26-.15-.53-.2-.8-.13-.61-.19-1.24-.19-1.88v-.21c.11-5.05,4.25-9.11,9.34-9.11,.17,0,.33,0,.5,.01,.14,.01,.28,.02,.42,.04,.34,.03,.69,.08,1.02,.15Z" class="prefix__cls-4"/><path d="M25.29,5.37c-.07-.1-.16-.2-.25-.28-.12-.1-.25-.18-.39-.24l-1.22-.51L13.32,.11c-.17-.07-.36-.11-.55-.11s-.38,.04-.56,.11L.88,4.85c-.26,.11-.48,.29-.64,.52-.15,.24-.24,.51-.24,.79v10.62c0,.16,.04,2.19,1.6,5.05,.51,.94,1.2,1.97,2.1,3.05,.89,1.08,2,2.21,3.38,3.35,.8,.67,1.69,1.35,2.69,2.02h.01c.54,.38,1.12,.75,1.73,1.12,.29,.18,.59,.35,.9,.53,.11,.07,.23,.1,.36,.1s.25-.03,.36-.1c.53-.3,1.03-.6,1.51-.91,.62-.38,1.2-.77,1.75-1.16,6.38-4.51,8.31-9.02,8.89-11.37,.25-.98,.26-1.6,.26-1.68V6.16c0-.28-.09-.55-.25-.79Zm-1.19,3.43v7.97s0,.57-.26,1.5c-.18,.63-.46,1.45-.94,2.39-.08,.18-.18,.36-.28,.54-1.13,2.04-3.34,4.93-7.64,7.85-.25,.17-.51,.31-.79,.41-.45,.18-.93,.27-1.42,.27-.79,0-1.57-.23-2.22-.68-.39-.27-.77-.53-1.12-.8-.06-.04-.12-.09-.18-.13-3.45-2.6-5.33-5.1-6.34-6.92-.16-.29-.31-.58-.43-.85-1.02-2.13-1.04-3.56-1.04-3.57v-7.98c0-.78,.23-1.55,.67-2.2,.43-.65,1.05-1.15,1.77-1.45l7.36-3.07c.48-.21,1-.31,1.53-.31s1.04,.1,1.52,.31l7.36,3.07c.73,.3,1.34,.8,1.78,1.45,.38,.57,.6,1.23,.66,1.92,0,.09,0,.18,0,.28Z" class="prefix__cls-1"/></g></svg>