<svg width="446" height="201" viewBox="0 0 446 201" fill="none" xmlns="http://www.w3.org/2000/svg">
<g clip-path="url(#clip0_1_146)">
<path d="M345.3 200.386C400.528 200.386 445.3 155.615 445.3 100.386C445.3 45.1576 400.528 0.386108 345.3 0.386108C290.072 0.386108 245.3 45.1576 245.3 100.386C245.3 155.615 290.072 200.386 345.3 200.386Z" fill="#3A50BF"/>
<path d="M263.7 200.386C318.928 200.386 363.7 155.615 363.7 100.386C363.7 45.1576 318.928 0.386108 263.7 0.386108C208.472 0.386108 163.7 45.1576 163.7 100.386C163.7 155.615 208.472 200.386 263.7 200.386Z" fill="#2937A9"/>
<path d="M182.2 200.386C237.428 200.386 282.2 155.615 282.2 100.386C282.2 45.1576 237.428 0.386108 182.2 0.386108C126.972 0.386108 82.2 45.1576 82.2 100.386C82.2 155.615 126.972 200.386 182.2 200.386Z" fill="#171F92"/>
<path d="M100.7 200.386C155.928 200.386 200.7 155.615 200.7 100.386C200.7 45.1576 155.928 0.386108 100.7 0.386108C45.4715 0.386108 0.700012 45.1576 0.700012 100.386C0.700012 155.615 45.4715 200.386 100.7 200.386Z" fill="#101589"/>
</g>
<defs>
<clipPath id="clip0_1_146">
<rect width="444.6" height="200" fill="white" transform="translate(0.700012 0.386108)"/>
</clipPath>
</defs>
</svg>
