<svg xmlns="http://www.w3.org/2000/svg" viewBox="0 0 242 255.5"><defs><linearGradient id="prefix__linear-gradient" y1="89.1" x2="142" y2="89.1" gradientUnits="userSpaceOnUse"><stop offset="0" stop-color="#3041b2"/><stop offset="1" stop-color="#101589"/></linearGradient><clipPath id="prefix__clip-path" transform="translate(51 38)"><path class="prefix__cls-1" d="M142 34.3v59.2c0 1.8-.8 45.1-69 84.2a4 4 0 0 1-4 0c-34.1-19.5-51.4-40.1-60-56S0 94.3 0 93.4V34.3A8 8 0 0 1 5 27L68 .6a8 8 0 0 1 6 0L137 27a8 8 0 0 1 5 7.4Z"/></clipPath><style>.prefix__cls-1{fill:none}</style></defs><g id="prefix__Layer_2" data-name="Layer 2"><g id="prefix__Layer_1-2" data-name="Layer 1"><g clip-path="url(#prefix__clip-path)"><circle cx="97.7" cy="97.7" r="97.7" fill="#06067c"/><circle cx="118.5" cy="121.2" r="86.3" fill="#101589"/><circle cx="139.3" cy="144.7" r="74.8" fill="#1b2497"/><circle cx="160" cy="168.1" r="63.4" fill="#2532a4"/><circle cx="180.8" cy="191.6" r="51.9" fill="#3041b2"/><circle cx="201.6" cy="215" r="40.5" fill="#3a50bf"/></g><path d="M137 27 74 .6a8 8 0 0 0-6 0L5 27a8 8 0 0 0-5 7.3v59.2c0 .9.2 12.2 9 28.1s26 36.6 60 56.1a4 4 0 0 0 4 0c68.2-39 69-82.4 69-84.2V34.3a8 8 0 0 0-5-7.3Zm-3 66.5s-.2 10.2-8.2 24.6A131.6 131.6 0 0 1 83.3 162a21.9 21.9 0 0 1-24.6 0A131.6 131.6 0 0 1 16.2 118 58.3 58.3 0 0 1 8 93.5V49a22 22 0 0 1 13.6-20.3l40.9-17.1a22 22 0 0 1 17 0l41 17A22 22 0 0 1 134 49Z" transform="translate(51 38)" fill="url(#prefix__linear-gradient)"/><path class="prefix__cls-1" d="M185 87v44.4s-.2 10.2-8.2 24.6a131.6 131.6 0 0 1-42.5 43.8 21.9 21.9 0 0 1-24.6 0A131.6 131.6 0 0 1 67.2 156a58.3 58.3 0 0 1-8.2-24.6V86.9a22 22 0 0 1 13.6-20.3l40.9-17.1a22 22 0 0 1 17 0l41 17.1A22 22 0 0 1 185 86.9Z" opacity=".8"/></g></g></svg>